<mxfile host="app.diagrams.net" modified="2023-11-17T09:23:39.364Z" agent="Mozilla/5.0 (Macintosh; Intel Mac OS X 10_15_7) AppleWebKit/537.36 (KHTML, like Gecko) Chrome/118.0.0.0 Safari/537.36" version="22.1.2" etag="Nkmk9ufF5WWEvTArI3aF" type="github">
  <diagram name="ページ1" id="o9Dj71HBW7K5gvF09RXM">
    <mxGraphModel>
      <root>
        <mxCell id="0" />
        <mxCell id="1" parent="0" />
      </root>
    </mxGraphModel>
  </diagram>
</mxfile>
